<?xml version="1.0" standalone="no"?>
<!DOCTYPE svg PUBLIC "-//W3C//DTD SVG 20010904//EN"
 "http://www.w3.org/TR/2001/REC-SVG-20010904/DTD/svg10.dtd">
<svg version="1.0" xmlns="http://www.w3.org/2000/svg"
 width="960.000000pt" height="113.000000pt" viewBox="0 0 960.000000 113.000000"
 preserveAspectRatio="xMidYMid meet">

<g transform="translate(0.000000,113.000000) scale(0.100000,-0.100000)"
fill="#000000" stroke="none">
<path d="M105 981 c-11 -5 -29 -19 -40 -31 -19 -21 -20 -36 -20 -416 l0 -394
28 -27 c37 -38 114 -40 149 -5 22 22 23 30 28 247 l5 224 167 -217 c196 -255
212 -272 265 -279 35 -4 45 -1 74 25 l34 30 0 396 0 396 -28 27 c-37 38 -114
40 -149 5 -22 -22 -23 -30 -28 -251 l-5 -228 -180 239 c-99 132 -192 246 -207
254 -30 15 -62 17 -93 5z m65 -51 c10 -5 119 -143 241 -306 l224 -297 5 297
c4 249 7 298 20 306 20 13 37 12 61 0 18 -10 19 -25 19 -380 l0 -370 -53 0
-54 0 -120 153 c-65 83 -162 207 -214 274 l-94 122 -3 -274 -2 -275 -50 0 -50
0 0 370 c0 341 1 370 18 379 22 13 29 13 52 1z"/>
<path d="M1179 972 c-184 -48 -290 -208 -290 -437 0 -240 116 -401 319 -444
149 -31 296 6 395 102 82 80 127 203 127 347 0 136 -41 249 -120 330 -105 107
-264 145 -431 102z m206 -43 c196 -36 311 -207 292 -434 -11 -125 -62 -229
-139 -285 l-41 -30 -194 0 -195 0 -57 58 c-41 41 -64 74 -81 117 -28 75 -38
219 -20 296 49 209 219 318 435 278z"/>
<path d="M1193 815 c-92 -46 -133 -133 -133 -281 0 -203 85 -304 256 -304 73
0 128 24 172 74 47 54 63 100 69 199 10 157 -41 273 -141 318 -62 28 -159 25
-223 -6z m203 -44 c76 -35 109 -107 109 -241 0 -87 -3 -100 -30 -149 -85 -156
-307 -126 -355 48 -13 46 -13 166 0 212 34 122 161 182 276 130z"/>
<path d="M1774 980 c-32 -12 -54 -49 -54 -88 0 -45 313 -752 347 -784 36 -33
121 -33 157 1 16 15 85 160 186 386 175 396 182 421 134 466 -37 35 -113 34
-148 -1 -14 -14 -72 -134 -132 -275 -58 -137 -109 -253 -113 -257 -4 -4 -58
112 -121 259 -98 226 -120 269 -145 285 -32 19 -76 22 -111 8z m84 -57 c12
-10 78 -151 147 -313 69 -162 129 -304 134 -315 8 -18 11 -16 26 20 245 579
258 607 281 617 32 15 74 -4 74 -33 0 -18 -172 -417 -285 -662 l-26 -57 -63 0
-63 0 -45 98 c-25 53 -96 211 -158 350 -114 258 -124 294 -82 305 32 9 40 7
60 -10z"/>
<path d="M2865 976 c-17 -7 -38 -24 -46 -37 -9 -13 -86 -182 -172 -375 -172
-384 -179 -410 -131 -455 30 -29 109 -34 139 -9 10 8 36 52 57 98 l38 82 167
0 168 0 28 -69 c39 -94 74 -126 137 -126 38 0 55 5 72 23 44 44 34 77 -141
467 -88 198 -172 370 -184 383 -29 29 -91 37 -132 18z m78 -47 c14 -6 30 -23
37 -38 43 -92 299 -670 304 -688 7 -22 5 -23 -44 -23 l-51 0 -34 75 -35 75
-206 -2 -207 -3 -31 -72 -31 -73 -52 0 c-29 0 -53 2 -53 4 0 3 78 182 234 536
70 157 109 220 136 220 5 0 20 -5 33 -11z"/>
<path d="M2833 610 l-81 -190 164 0 164 0 -9 23 c-17 43 -141 329 -149 343 -6
10 -34 -45 -89 -176z m112 -10 c15 -36 34 -80 42 -97 l13 -33 -84 0 -84 0 42
99 c22 55 42 99 42 98 1 -1 14 -31 29 -67z"/>
<path d="M4095 981 c-11 -5 -29 -19 -40 -31 -19 -21 -20 -36 -20 -416 l0 -394
28 -27 c23 -23 36 -28 77 -28 41 0 54 5 77 28 l28 27 0 395 0 395 -26 26 c-28
28 -89 40 -124 25z m85 -61 c19 -19 20 -33 20 -380 l0 -360 -55 0 -55 0 0 370
c0 341 1 370 18 379 26 16 50 13 72 -9z"/>
<path d="M4643 975 c-199 -54 -304 -205 -304 -440 0 -150 44 -268 127 -345
105 -97 263 -132 423 -95 76 18 158 60 179 93 23 35 19 98 -8 127 -38 40 -72
41 -148 3 -58 -29 -77 -33 -143 -33 -65 0 -81 4 -116 27 -65 43 -88 101 -88
223 0 85 4 107 24 148 32 67 82 98 166 104 59 5 71 3 133 -28 85 -42 136 -43
169 -5 32 38 32 108 -1 141 -78 78 -276 116 -413 80z m282 -66 c74 -28 107
-55 103 -87 -2 -13 -12 -31 -23 -38 -18 -12 -28 -10 -80 18 -71 37 -168 48
-242 27 -67 -18 -136 -89 -157 -160 -20 -68 -20 -200 0 -268 19 -66 80 -134
139 -157 67 -25 186 -17 254 19 80 41 111 35 111 -24 0 -11 -14 -28 -32 -39
-30 -18 -51 -20 -236 -20 l-204 0 -57 58 c-74 73 -101 141 -108 268 -13 227
85 376 277 421 70 16 186 8 255 -18z"/>
<path d="M5758 974 c-80 -19 -133 -48 -188 -104 -83 -82 -120 -184 -121 -330
0 -247 110 -401 318 -445 122 -26 284 -12 387 34 62 27 68 54 64 263 -4 223 6
213 -199 213 -146 0 -151 -1 -170 -24 -29 -35 -26 -101 6 -131 21 -20 39 -25
95 -28 l70 -4 0 -63 0 -64 -56 -7 c-189 -23 -285 53 -293 233 -4 100 17 170
64 217 65 65 196 74 296 20 100 -55 179 -24 179 70 0 34 -6 48 -32 74 -81 77
-272 112 -420 76z"/>
<path d="M7379 972 c-184 -48 -290 -208 -290 -437 0 -240 116 -401 319 -444
149 -31 296 6 395 102 82 80 127 203 127 347 0 136 -41 249 -120 330 -105 107
-264 145 -431 102z m217 -201 c76 -35 109 -107 109 -241 0 -87 -3 -100 -30
-149 -52 -96 -158 -128 -255 -78 -77 38 -110 109 -110 232 0 39 5 86 10 106
34 122 161 182 276 130z"/>
<path d="M8063 980 c-53 -22 -55 -35 -51 -352 5 -331 8 -351 80 -433 85 -96
242 -137 400 -104 141 30 227 116 257 257 6 31 11 157 11 308 0 288 -3 304
-65 324 -48 16 -96 6 -126 -26 -24 -25 -24 -27 -29 -307 -6 -313 -6 -314 -72
-348 -78 -40 -184 -16 -220 52 -16 30 -18 61 -18 274 0 253 -6 306 -38 338
-22 22 -95 32 -129 17z"/>
<path d="M3280 973 c-40 -15 -60 -46 -60 -93 0 -37 5 -51 26 -71 24 -22 35
-24 145 -27 l119 -4 0 -318 0 -319 24 -28 c21 -25 31 -28 81 -28 50 0 60 3 81
28 l24 28 0 319 0 318 120 4 c113 3 121 4 145 29 37 37 38 101 1 138 l-26 26
-333 2 c-182 1 -339 -1 -347 -4z m661 -53 c12 -7 19 -21 19 -40 0 -19 -7 -33
-19 -40 -11 -5 -76 -10 -145 -10 l-126 0 0 -325 0 -325 -55 0 -55 0 0 325 0
325 -126 0 c-69 0 -134 5 -145 10 -25 14 -26 65 -1 79 23 14 627 15 653 1z"/>
<path d="M6395 971 c-11 -5 -29 -19 -40 -31 -19 -21 -20 -36 -20 -410 l0 -388
24 -26 c30 -32 78 -42 126 -26 54 18 65 53 65 200 l0 120 58 0 c35 0 66 -6 79
-15 11 -8 53 -72 91 -143 39 -70 81 -137 93 -148 32 -29 121 -27 151 4 40 39
31 91 -33 207 -30 55 -61 110 -69 121 -12 20 -10 24 24 54 52 46 78 103 84
181 7 96 -16 165 -74 222 -72 72 -106 80 -339 84 -110 1 -209 -1 -220 -6z
m375 -194 c62 -31 66 -122 7 -157 -26 -16 -51 -20 -129 -20 l-98 0 0 95 0 95
98 0 c57 0 107 -5 122 -13z"/>
<path d="M8935 971 c-11 -5 -29 -19 -40 -31 -19 -21 -20 -36 -20 -411 l0 -389
28 -27 c23 -23 36 -28 77 -28 41 0 54 5 77 28 27 27 28 31 31 156 l4 129 131
5 c167 6 209 20 275 92 54 59 72 108 72 195 0 87 -18 136 -72 195 -73 80 -102
88 -343 92 -110 1 -209 -1 -220 -6z m397 -209 c18 -17 23 -34 23 -72 0 -38 -5
-55 -23 -72 -20 -21 -34 -23 -132 -26 l-110 -4 0 102 0 102 110 -4 c98 -3 112
-5 132 -26z"/>
</g>
</svg>
